<?xml version="1.0" encoding="utf-8"?>
<!-- Generator: Adobe Illustrator 24.2.3, SVG Export Plug-In . SVG Version: 6.00 Build 0)  -->
<svg version="1.1" id="Layer_1" xmlns="http://www.w3.org/2000/svg" xmlns:xlink="http://www.w3.org/1999/xlink" x="0px" y="0px"
	 viewBox="0 0 1200 1200" style="enable-background:new 0 0 1200 1200;" xml:space="preserve">
<style type="text/css">
	.st0{fill:#FFFFFF;}
	.st1{fill:#213966;}
	.st2{fill:#FBBC00;}
	.st3{fill:#1E3A67;}
</style>
<g>
	<path id="XMLID_21_" class="st0" d="M600,1156.8c-148.7,0-288.5-57.9-393.7-163.1C101.1,888.5,43.2,748.7,43.2,600
		s57.9-288.5,163.1-393.7S451.3,43.2,600,43.2c148.7,0,288.5,57.9,393.7,163.1c105.2,105.2,163.1,245,163.1,393.7
		s-57.9,288.5-163.1,393.7C888.5,1098.9,748.7,1156.8,600,1156.8z"/>
	<g>
		<g>
			<path class="st1" d="M462.9,247.1c0.2-3.6,0.1-7.2,0.1-10.9c-0.1-3.5-1.9-5.7-5.1-7.1c-8.5-3.7-21.8,0.4-26.7,8.5
				c-7.2,11.7-13.5,23.8-17.6,37c-0.4,1.5-0.3,3.5-2.4,4.2c-0.4-0.6-0.8-0.9-0.9-1.3c-2.2-6.7-5.9-12.5-10.2-18
				c-9.2-11.6-19.6-22.2-30.9-31.7c-4-3.3-7.7-7-11.5-10.5c-0.3-0.2-0.2-0.8-0.4-1.4c1.3-0.4,2.4-0.7,3.9-1.2
				c-0.3-2.1-0.5-3.9-1-5.7c-1.6-5.5-1.9-5.7-7.5-5.7c-5.1,0-10-1-14.7-2.9c-0.9-0.4-1.9-0.6-3.6-1c0.8,2.8,1.2,4.9,1.9,6.9
				c1.5,4.1,3.7,8.1,8,9.4c3.2,1,5,2.9,7,5.1c1.8,2,3.7,3.9,5.5,5.8c17.1,17.4,34.1,34.9,51.3,52.2c2.4,2.4,2.7,4.6,1.7,7.6
				c-3,8.4-8.6,14.4-16.6,18.5c-7.1,3.6-13.7,3.5-19.6-1.9c-6.2-5.8-12.3-11.7-18.2-17.8c-4-4.1-7.5-8.7-11.3-13
				c0,1.4-0.2,2.8,0.1,4c1.6,6.9,3.7,13.6,8.5,19.2c5.7,6.8,8.3,15.1,10.3,23.6c1.8,7.9-1.3,12.9-8.9,15.8
				c-5.8,2.2-11.7,1.8-17.7,1.2c-3-0.3-5.3-1.6-7.1-4.1c-1.3-1.7-3-3-4.7-4.6c-1.5,2.3-1.7,4.1-1,5.9c2.7,6.4,2.8,13.1,2.7,19.9
				c-0.2,10-3.3,18.5-12.4,24c-1.2,0.7-2.2,1.8-3.4,2.6c-0.7,0.6-1.6,1.5-2.4,1.5c-5.4,0-11.1,1.9-16.3-0.8
				c-5.9-3-11.7-6.1-17.2-9.8c-9.6-6.4-17.6-14.7-25.7-22.9c-1.2-1.2-2.2-2.8-4.4-3.5c0.3,1.6,0.8,2.6,0.8,3.7
				c0,3.4,1.3,5.6,4.2,7.7c2.6,1.9,4,5.1,3.4,8.8c-2.2,12.7-4.2,25.4-6.4,38.1c-0.5,2.9-1,5.5,1.2,8c1.8,2.2,2,5.6,4.8,7.3
				c3.9-3.7,7.5-7.5,11.5-10.8c7.9-6.5,10.3-14.7,8.8-24.5c-0.2-1.3-0.3-2.5-0.4-4.2c0.9,0.6,1.4,0.8,1.7,1.1
				c5.7,6,12.6,10.4,19.6,14.7c1.4,0.9,3.1,1.5,4.8,1.9c9.3,2.3,17.6-0.1,24.6-6.3c10.4-9.2,15-20.7,12.9-34.7
				c-0.3-1.7-0.3-3.4-0.4-5.2c1.2,0,2-0.1,2.7,0c6.1,1.4,12.2,1,18.3-0.4c7.8-1.8,14.9-5.1,20.3-11.3c1.7-1.9,2.5-3.9,1.4-6.4
				c-1.7-3.6-3.2-7.2-4.8-10.8c-0.6-1.4-1.2-2.7-1.9-4.1c0.3-0.2,0.5-0.5,0.8-0.7c1.6,1.1,3.3,2.1,4.8,3.3c3.7,2.9,7.8,4.3,12.3,2.7
				c3.5-1.2,7.2-2.6,10.2-4.8c9.3-6.8,18.5-13.6,27.2-21.1c14.4-12.5,26-27.3,34.9-44.3C462.1,250.5,462.7,248.8,462.9,247.1z
				 M265.4,380.3c-0.4,4.4-3.5,10.8-9.9,11.5c0.4-8.4,0.8-16.4,1.1-24.5C264.2,370.6,266,373.2,265.4,380.3z M420.4,283
				c-0.4-0.1-0.7-0.2-1.1-0.4c0.3-2,0.6-4,1-5.9c2.3-9.9,6.2-19.1,11.2-27.9c1.8-3.2,4.3-5.4,7.8-6.3c3-0.8,6.1-1.7,9.1-2.2
				c1.9-0.3,4.1-0.6,6,1.8C444.7,256.9,432.9,270.2,420.4,283z"/>
		</g>
		<g>
			<path class="st1" d="M878.1,343.9c5.8-12,11.5-24.1,17.4-36.1c1.9-3.8,4.1-7.4,6.2-11.1c0.2-0.3,0.7-0.4,1.1-0.6
				c0.6,1,1.1,1.9,1.8,3.1c3.2-1.2,5.8-2.8,7.8-5.3c1.6-2,2.3-4.3,0.7-6.5c-3-4.5-3.5-9.3-2.5-14.4c0.2-1.1,0.2-2.3,0.3-4.3
				c-6.9,3.5-11.6,7.5-12.4,15c-0.2,1.5-0.7,3-1.3,4.4c-1.3,2.9-2.8,5.6-4.2,8.5c-8.2,16.5-16.4,32.9-24.7,49.4
				c-1.2,2.3-2.8,4.4-4.4,7c-4.9-5-8.4-10-10.4-16.1c-0.7-2.3-0.3-4.3,1.6-6c2.5-2.2,4.9-4.4,7.3-6.7c0.7-0.7,1.3-1.5,1.9-2.3
				c-0.2-0.3-0.3-0.5-0.5-0.8c-1.4,0.5-2.8,0.9-4.2,1.5c-11,5-22.3,6.3-34,2.6c-7.6-2.4-13.3-7.1-16.2-14.7
				c-2.1-5.6-3-11.4-1.7-17.9c2.8,1.5,4.9,2.8,7.1,3.9c2.9,1.5,5.9,2.9,8.9,4.3c2,1,3.6,0.3,4.9-1.5c2.1-2.9,4.4-5.8,6.8-9
				c-4.3-2.1-8.3-4.3-12.4-6.2c-14-6.2-24.4-15.9-30.4-30.1c-1.8-4.3-4.3-8.5-7-12.2c-6.9-9.3-16.4-14.5-28-13.7
				c-12.4,0.9-21.5,7.3-26.6,19c-0.4,0.9-0.6,1.9-1.1,3.6c2.2-1.1,3.8-1.7,5.3-2.5c4.7-2.3,9.5-4,14.7-4.8
				c13.8-2.2,26.1,6.7,28.5,21.1c-2.3,0.3-4.6,0.9-6.9,0.8c-5.5-0.4-11-0.7-16.4-1.8c-6.6-1.3-13.2-2.8-19.6-5
				c-7-2.4-11.4-7.8-13-15c-0.9-4.1-1.9-8.4-1.7-12.6c0.5-13.7,1.2-27.4,2.3-41c1-12.4,2.7-24.7,3.9-37.1c0.1-1.4-0.6-2.8-0.9-4.2
				c-0.5,0-1,0-1.5,0.1c-0.7,2.2-1.6,4.4-1.9,6.7c-1.6,10.1-3.3,20.2-4.6,30.3c-2,15.6-3.8,31.2-5.6,46.8c-0.6,5.2-1.2,10.4-1,15.5
				c0.5,15.5,8.5,24.7,23.2,26.9c6.1,0.9,12.2,1.3,18.3,2c12.4,1.4,24.6,3.3,36.4,7.6c4.5,1.6,8.9,3.8,12.9,5.5
				c-0.7,7.3-1.7,13.8-1.8,20.4c-0.1,4.3,0.8,8.8,2.1,13c3.2,10.3,12.3,16.9,23.1,17c5.5,0,11-0.7,16.5-0.8c3.7-0.1,5.2,1.1,6,4.6
				c0.6,2.5,0.8,5,1.2,7.4c1.1,6.3,3.4,12,7.8,16.7c8.1-3.6,12.4-8,15.6-14.6C874.7,350.3,876.5,347.2,878.1,343.9z"/>
		</g>
		<g>
			<path class="st1" d="M1002.1,559.6c4.6-4,4.4-7.9,0-12.2c-5-4.9-10.6-8.8-17.6-10.7c-6.8-1.8-12.9-5.1-18.4-9.3
				c-3-2.4-6.3-5.1-6.9-9.2c-0.8-5.7,1.1-11.1,2.9-16.6c2.3,0.4,4.2,0.9,6.2,1.1c2,0.2,4.1,0.2,6.1,0.2c5.4-0.1,7.8-1.6,9.3-6.8
				c2.2-8,1.8-16-1.5-23.5c-2-4.5-5.8-7.6-10.7-8.4c-4.7-0.8-9.4,0.1-13.5,2c0.9,2.7,2.2,5.1,2.6,7.7c1,5.6-2.2,10.5-7.4,11.7
				c-0.8-1-1.8-2-2.7-3.1c-4.2-4.7-8.2-9.5-12.7-14c-2.3-2.4-3.4-5-3.2-8c0.6-7,1.7-13.8,7.4-18.8c4.4-3.9,8.5-8.1,13.2-11.4
				c7.8-5.6,16-10.6,24-16c1.8-1.2,3.5-2.4,5.2-3.6c-4-1-7.5-1.8-11,0.7c-1.8,1.3-4.3,1.9-6.6,2.5c-1.1,0.3-2.6,0.1-3.6-0.4
				c-10.4-5.5-20.8-11.1-31.3-16.5c-6.2-3.2-12.1-2.2-17.5,2.4c3.7,6.4,7.4,12.8,11.1,19.2c2.6,4.5,6.6,7.1,11.7,7.9
				c3.2,0.5,6.4,0.8,10.5,1.3c-3,2.2-5.5,4.1-8,5.9c-5.3,3.7-10.3,7.6-14.6,12.6c-7.8,9.1-9.5,24.3,4.2,33.8c4.7,3.2,9.2,6.7,14,9.6
				c4.6,2.8,6,6.6,5,11.6c-0.6,3.2-1.7,6.4-2.2,9.7c-0.6,4-1.1,8.1-1.1,12.1c0,3.4,1.8,6,5.1,7.3c2.8,1.1,5.6,2,8.4,3
				c2.3,0.8,4.7,1.7,7,2.5c0.5,14.8-4.8,28.6-4,43.2c1.1-0.1,1.8-0.1,2.6-0.2c8.1-1,15.6-3.7,22.4-8.1
				C992.1,567.1,997.4,563.7,1002.1,559.6z M945.4,420.3c-3.9-1.1-6.3-5.3-6.6-12.2c7.2,2.8,14.3,5.6,21.3,8.3
				C956.5,421.1,952.4,422.3,945.4,420.3z M979.3,544.3c6.6,0.2,11.2,3.1,14.8,8.1c-2.8,5.4-6.5,7.6-14.8,8.7
				C979.3,555.5,979.3,550.1,979.3,544.3z"/>
		</g>
		<g>
			<path class="st1" d="M233.2,666.3c-2.1-2.8-4.7-4.9-8-5.4c-4.3-0.6-8.7-0.8-13.1-1c-1.2-0.1-2.4,0.3-4,0.5
				c2.2-3.9,1.8-7.4,0.6-11c-0.8-2.4-1.6-4.8-2.8-7c-1.4-2.7-1-4.8,0.9-6.8c1-1,1.9-2.1,2.7-3.3c3.8-5.6,2.4-11.4-3.5-14.6
				c-1.1-0.6-2.1-1.3-3.5-2.1c1.1-1.7,2.1-3.1,3.1-4.5c3.4-4.5,5.7-9.1,1-14.9c2.2,0,3.6,0.2,5,0c6.2-0.9,12.5-1.6,18.6-3.1
				c6.1-1.5,9.9-5.7,10.9-12.2c0.9-5.5,0-10.7-2.2-15.6c-2-4.6-5.3-7.7-10.4-8.8c-2.3-0.5-4.6-1.2-6.8-1.9
				c-3.5-1.1-6.9-0.8-10.2,0.2c-4.8,1.6-9.5,3.5-14.5,5.3c3.6,2.3,7,4.8,10.6,6.9c0.9,0.5,2.4,0.5,3.4,0.2c2.7-0.8,5.3-2,8-2.8
				c3.1-1,6,0.5,6.5,3.6c0.8,5,0.6,10-1.9,14.7c-1,1.9-2.5,2.5-4.6,2.6c-2.2,0.1-4.3,0.6-6.4,1c-5.9,1.1-11.7,3-17.6,3.2
				c-16.4,0.4-32.8,0.2-49.1,0.1c-2.8,0-5.7-0.5-9.2-0.8c3.8,4.6,8.4,6.4,13.1,7.3c7.7,1.4,15.4,3,23.4,2.3
				c7.3-0.7,14.7-0.9,22.3-1.4c3.3,2.3,2.5,5.8,1.7,9.2c-0.6,3-2.5,5.7-6.6,5.3c-3-0.3-6.1,0-9.3,0c1.6,5.6,4.9,8.2,9.9,8.7
				c1.1,0.1,2.2,0.4,3.2,0.6c3.7,0.9,5.9,4.1,5.4,7.7c-0.7,4.8-2.5,6.5-6.9,6.6c-3.2,0.1-6.4-0.2-9.7,0.2c1.9,6.7,8.4,7.4,12.1,11.3
				c0,3.3,0.2,6.6-0.1,9.9c-0.2,1.7-1,3.6-2.1,5c-3.2,4.2-8,6-12.8,7.6c-1.1,0.4-2.2,0.8-3.8,1.3c3.9,2.6,7.3,4.8,10.6,7.2
				c1.6,1.1,3.1,1.1,4.9,0.5c5.4-1.8,10.7-3.6,16.2-5.1c4.3-1.2,8.8-2.1,13.1-3.1c5.3,7.8,8.7,15.5,9.2,24.5
				c0.3,6-0.9,11.6-4.2,16.6c-2.3,3.6-5.6,5.8-9.8,6.8c-4.2,1-8.1,0-12.1-0.9c-4.1-1-8.1-2.2-12.1-3.3c10,8.7,21.2,13.3,34.6,11.4
				c8.5-1.2,14.2-5.7,17.3-13.5c2.3-5.7,2.6-11.6,1.6-17.6C244.4,683.5,239.5,674.6,233.2,666.3z"/>
		</g>
		<g>
			<path class="st1" d="M683.3,290.2c-10.7-0.3-21.3-1.7-31.8-4.1c-7.7-1.7-15.2-4.1-21.7-8.9c-4-3-6.4-6.8-7.3-11.7
				c-1.4-7.8,0.3-15,3.6-22c6.3-13.5,17-22.8,29.7-30.1c9.6-5.5,19.8-7.8,30.8-6c3.2,0.5,6.4,0.1,9.9,0.1c0-6,5.4-10.3,5.1-16.5
				c-1.4,0-2.4-0.1-3.3,0c-16.8,3.1-33.2,1.9-49.3-3.5c-7.8-2.6-15.9-3.7-24.2-2.4c-7.9,1.2-14.5,4.5-18,12
				c-1.8,3.9-2.8,8.1-0.6,12.8c4-2.8,7.6-5.3,11.2-7.8c3.4-2.4,7-3.4,11.1-2.7c3.3,0.6,6.6,1,9.7,1.9c2.8,0.8,5.4,2.3,8.8,3.8
				c-3.7,2.5-6.6,4.5-9.5,6.6c-12.5,9.5-21.7,21.3-25.7,36.8c-4.8,18.9,1.4,34.3,18,44.5c9.7,6,20.4,9.1,31.6,10.1
				c14.4,1.2,28.6-0.1,42.6-3.9c8-2.2,16-4.6,23.4-9.1c-3.8,0.2-7.5,0.6-11.2,0.6C705.3,290.7,694.3,290.5,683.3,290.2z"/>
		</g>
		<g>
			<path class="st1" d="M1065.4,562.8c-3.6,1.1-7.3,1.9-10.8,3.4c-23.8,10.3-47.6,20.6-71.4,31c-2.9,1.3-5.6,3-8,5
				c-7.6,6-11,13.9-8.6,23.4c2.3,9,5.5,17.7,8.4,26.5c2.3,7,5,13.9,7.1,21c2.8,9.2,5.8,18.3,5.7,28.1c0,3.1,0.4,6.3,0.8,9.4
				c0.7,5.6,1.5,11.2,2.3,16.8c0.2,1.5,0.4,3.2,2.4,3.6c3.6,0.7,7.3,1.4,11.6,2.2c-0.7-5.6-1.3-10.4-1.9-15.2
				c-0.9-8.7-1.1-17.4,2.5-25.6c3.1-7,6.7-13.8,10.1-20.8c2.1-4.4,4.5-8.7,6-13.3c2.7-8.1,2-16.2-1.9-23.8
				c-3.8-7.3-9.4-13-16.3-17.4c-4.2-2.6-12.8-2.1-17.5,1.2c9.5,4.6,17.2,11.1,19.9,21.5c2.9,10.9-1.8,19.6-10.2,28.1
				c-1.4-3.3-2.7-5.8-3.6-8.4c-2-6-3.8-12-5.6-18c-1.1-3.8-2.4-7.5-3.4-11.3c-3-11.3-0.2-20.9,9.1-28.2c3.2-2.5,6.6-4.8,10.2-6.7
				c6.6-3.4,13.3-6.4,20.1-9.5c13.4-6.2,26.8-12.4,40.3-18.6c1.9-0.9,4-1.8,4.9-4.5C1066.9,562.8,1066.1,562.6,1065.4,562.8z"/>
		</g>
		<g>
			<path class="st1" d="M543.5,192.8c-1.5-7.2-3.1-14.4-4.6-21.7c-0.2-0.9,0.1-1.8,0.1-2.8c1.4,0.1,2.6,0.2,3.8,0.3
				c0.3-0.8,0.5-1.4,0.7-2c2.6-6.3,3.1-9.7-5.1-14.1c-3-1.6-5.2-4.1-6.5-7.2c-0.6-1.4-1.3-2.8-2.2-4.6c-3.5,6.3-4.5,12.2-0.9,18.3
				c0.6,1,0.9,2.3,1.1,3.5c0.9,5.1,1.5,10.2,2.5,15.3c3.1,16.4,6.4,32.7,9.5,49.1c0.7,3.5,0.6,7.1,0.8,10.6c-6.8,1.6-13,3-19.2,4.5
				c-0.5-0.8-0.8-1.3-1.1-1.8c-0.6-1.4-1.2-2.9-1.7-4.4c-3.8-10.1-11.2-15.7-21.7-17.2c-3.6-0.5-5.5,0.7-7.2,4
				c-0.7,1.4-1.2,2.9-2.1,4.2c-5.5,8.5-6,18.1-5.6,27.7c0.1,2.8,0.9,5.6,3.8,7.2c2.2,1.2,4.4,2.5,6.6,3.6c2.3,1.2,4.7,1.3,7.2,0.3
				c4.8-2,9.7-3.6,14.6-5.4c0.2,0.7,0.4,1.1,0.4,1.6c0,10.6-5.9,18.6-11.9,26.5c-0.4,0.5-1,0.7-1.5,1.1
				c-10.3,7.2-21.9,11.6-33.9,14.9c-3.9,1.1-7.7,2.1-11.6,3.1c10,2.2,20.1,2.3,30.1,1c5.6-0.7,11.1-2.4,16.4-4.2
				c6.5-2.3,11.3-6.7,14-13.2c1.5-3.8,3.3-7.6,4.2-11.5c1.6-7,2.6-14.2,4-21.9c1.1-0.4,2.9-1.1,4.7-1.5c4.5-0.9,9-1.6,13.5-2.3
				c2.1-0.3,3.9-0.8,4.7-3.2c1.9-5.9,3.4-11.8,2.1-18C548.7,219.3,546.2,206,543.5,192.8z M507.6,247.1c-5.3,1.9-10.9,2.3-16.6,2
				c-1.7-4.8,0.5-8.6,2.2-12.3c0.3-0.7,1.8-1.3,2.8-1.2c5,0.3,9.5,2.1,12.9,5.8C511.2,243.9,510.8,246,507.6,247.1z"/>
		</g>
		<g>
			<path class="st1" d="M243.4,504.3c-0.9-0.8-2.1-1.4-3.3-1.7c-7.2-2-14.4-3-21.7,0c-3.2,1.3-6.7,1.8-10.4,2.8
				c2.1,1.2,4.3,2.1,6.1,3.5c3.7,3,7.7,3,12,2.2c1.1-0.2,2.1-0.5,3.2-0.8c4.5-1.1,7.4,0.8,7.6,5.5c0.1,3.1-0.2,6.3-0.8,9.3
				c-0.7,3.3-3.2,5.5-6.5,6c-6.7,0.9-13.4,2-20.1,2.4c-15.4,0.8-30.8,1-45.9-3c-5.9-1.6-11.6-3.5-18-5.4c0.4,1.4,0.3,2.9,1,3.6
				c2.4,2.2,4.8,4.6,7.6,6.2c6.7,3.8,14.2,5.3,21.7,5.7c15.4,0.8,30.8,1.5,46.2,1.6c6.2,0,12.5-1.3,18.6-2.5
				c6.1-1.2,10-5.3,11.1-11.5C253.6,518.6,250.4,510.7,243.4,504.3z"/>
		</g>
		<g>
			<path class="st1" d="M578,196.2c-3.1-20-5.8-40.1-8.6-60.2c-0.2-1.3-0.4-2.7-0.8-5c-2.8,5.9-5.3,11-7.5,16.2
				c-0.6,1.5-0.8,3.4-0.5,5c1.2,7.9,2.5,15.8,4,23.7c4.1,22.3,8.9,44.4,10.3,67.1c0.2,3.8,0.6,7.7,0.9,12.4c0.9-1.3,1.4-1.8,1.7-2.4
				c3.3-6.2,3.5-13.1,3.4-19.7C580.8,220.9,580,208.5,578,196.2z"/>
		</g>
		<g>
			<path class="st1" d="M936.3,323.5c5.7-7.3,11.8-14.3,18.3-22.2c-5.6,1.8-10.4,3.5-15.1,4.9c-2.7,0.8-4.7,2.2-6.3,4.5
				c-8.3,11.8-16.8,23.6-25.3,35.3c-10.9,15-22.2,29.7-35.8,42.5c-0.4,0.3-0.5,0.9-0.8,1.5c5.3,0.2,5.5,0.2,8.9-2.8
				c1.1-0.9,2.1-1.9,3.2-2.8c11.9-9.4,22.6-20,31.6-32.3C922,342.6,929,332.9,936.3,323.5z"/>
		</g>
		<g>
			<path class="st1" d="M407.1,216.8c20.1-15.4,40.2-30.7,60.3-46.1c2.6-2,5.3-3.9,7.7-6.2c3.7-3.4,4.4-7,2.5-11.4
				c-0.5,0.3-1.1,0.5-1.6,0.9c-20.8,16.1-41.5,32-62.2,48.3c-3.2,2.5-5.8,5.8-8.2,9c-1.5,1.9-2.4,4.3-1,7.2
				C405.6,217.8,406.4,217.3,407.1,216.8z"/>
		</g>
		<g>
			<path class="st1" d="M837.9,212.4c2.2,0.2,4.5,0.3,6.6,0c3.7-0.6,6.7-2.2,7.8-6.6c-1.6-0.2-2.8-0.5-4-0.6
				c-9.3-0.7-18.5-1.4-27.8-2.2c-16.3-1.4-32.6-3-48.9-4.1c-4.1-0.3-8.4,0.6-12.6,1.3c-2.2,0.4-4,1.7-5,4.6c9.1,0.8,17.6,1.5,26,2.2
				C799.3,208.8,818.6,210.6,837.9,212.4z"/>
		</g>
		<g>
			<path class="st1" d="M993.5,450.7c-1.8-1.6-4-2.5-7.1-1.4c0.5,1,0.8,1.7,1.3,2.4c15.7,23,31.4,46,47.2,69
				c1.1,1.7,2.6,3.2,4.2,4.4c2.6,1.9,5.5,2.6,8.6,0.8c-0.2-0.6-0.3-0.9-0.5-1.2c-15.1-21.9-30.2-43.8-45.5-65.6
				C999.5,456,996.5,453.3,993.5,450.7z"/>
		</g>
		<g>
			<path class="st1" d="M1042.1,648.6c-0.7-2.4-1.9-4.7-3.2-6.8c-1.4-2.3-3.3-4.2-7.1-4.6c0.4,1.9,0.6,3.2,0.9,4.5
				c3.4,12.6,6.9,25.2,10.3,37.8c2,7.1,3.8,14.3,5.9,21.4c1.5,5,4.3,6.8,9.4,6.7c0-0.4,0.2-0.9,0.1-1.3
				C1052.9,687,1047.6,667.8,1042.1,648.6z"/>
		</g>
		<g>
			<path class="st1" d="M287.5,333.5c3.4,0.7,6.3-0.7,7.8-3.9c1.3-2.8,1.8-5.7,0.5-8.8c7.1-3.6,8.9-6.4,7.4-11.9
				c-1.8-6.3-6.3-10.5-11.5-13.9c-1.7,1.7-0.6,2.5,0.1,3.6c1.4,2.1,2.8,4.2,3.8,6.5c0.8,1.8,0.8,4.1-1.1,5.1c-1.3,0.7-3.3,0.4-4.8,0
				c-1.7-0.4-3.2-1.5-4.8-2.2c-0.3,0.2-0.5,0.5-0.8,0.7c0.6,1.4,1.3,2.7,1.8,4.1c0.9,2.5,1.9,5,2.5,7.5c0.4,1.7,0.5,3.6-1.4,4.6
				c-1.8,1-3.3-0.1-4.7-1.2c-1.4-1.1-2.7-2.3-4.1-3.6c-0.5,0.6-0.9,0.8-0.9,1.1C277.5,326.1,282.8,332.5,287.5,333.5z"/>
		</g>
		<g>
			<path class="st1" d="M241.9,474.4c2.5-10.9,3.6-22.3,10.4-32.4c-3-1.5-5.8-2.8-8.9-4.3c-0.7,1.7-1.4,2.9-1.8,4.2
				c-1.8,6.2-3.6,12.3-5.3,18.5c-1.7,6.1-3.3,12.3-5,18.6C237.4,483.5,240.1,482.1,241.9,474.4z"/>
		</g>
		<g>
			<path class="st1" d="M212.9,370.3c3.9-1.4,7.4-2.6,10.9-3.8c0.5-3.9-2.4-6.2-3.6-9.5c3.5-2.1,6.8-4.1,10.2-6
				c-0.9-1.6-1.7-3-2.5-4.4c-2-3.7-5.3-4.7-9.2-4.4c-3.7,0.3-5.4,3-4.3,6.6c0.6,2.1,1.5,4,2.3,6.4c-2.2,1.1-4.5,2.2-6.7,3.3
				c-2.4,1.2-3,2.2-1.8,4.4C209.7,365.5,211.4,367.9,212.9,370.3z"/>
		</g>
		<g>
			<path class="st1" d="M992.1,398.8c2.8,0,5,0,7.1,0c1.7,0,2.8-0.9,3.1-2.3c0.9-3.8,1-7.6-0.1-11.4c-3.2,0.2-6,0.3-8.4,0.5
				c0.1-3.5,0.5-6.6,0.3-9.7c-0.1-2.4-2.2-3.6-4.3-3c-2.6,0.8-5.3,1.8-7.8,2.6c-0.2,4-0.5,8.1-0.7,12.8c3.6-0.3,6.7-0.5,10.7-0.8
				C992.1,391,992.1,394.8,992.1,398.8z"/>
		</g>
		<g>
			<path class="st1" d="M354.5,377.7c-0.2,3.4-0.3,6.6-0.5,10c-3.6,0-6.7,0-10,0c-1.4,3.7-0.8,7.2-0.5,10.7c4.3,0.7,8.4,1.3,13,2
				c0-3.3,0-6.5,0-10.2c3.8,0,7.2,0,10.5,0C368.7,379.7,364.8,375.7,354.5,377.7z"/>
		</g>
		<g>
			<path class="st1" d="M261.3,570.4c-2.5,1.6-4.8,3.5-5.9,6.3c1.8,4.9,6.9,5.1,9.7,8.1c3-3.6,5.7-6.8,8.8-10.6
				c-2-1.3-4-2.4-5.7-3.7C265.9,568.7,263.6,569,261.3,570.4z"/>
		</g>
		<g>
			<path class="st1" d="M180.1,508.6c1.5,1,3.2,1.8,4.6,2.6c3.1-2.9,5.9-5.5,8.9-8.3c-1-1.1-1.9-2.2-2.8-3.1
				c-5.6-5.7-6.3-5.7-11.7,0.3C176.3,503.2,176.6,506.2,180.1,508.6z"/>
		</g>
		<g>
			<path class="st1" d="M321.6,286.3c0.2-3.7,0.6-6.9,0.4-10.1c0-0.9-1.3-2.2-2.3-2.6c-2.6-1-5.3-1.5-8.3-2.3
				c-0.8,4.4-3.9,7.8-2.5,12.5C313.1,284.6,317.1,285.4,321.6,286.3z"/>
		</g>
		<g>
			<path class="st1" d="M860.2,280.2c0.9-0.2,1.8-0.4,2.8-0.5c4.4-0.4,5.3-1.3,5.6-5.7c0.1-1.7,0.1-3.5,0-5.2
				c-0.2-2.8-1.3-3.5-4.1-3.1c-2.8,0.4-5.5,0.8-8.2,1.2c0.6,4.8,1.1,9.4,1.7,14.2C858.7,280.7,859.4,280.4,860.2,280.2z"/>
		</g>
		<g>
			<path class="st1" d="M757.5,302.4c-2.7,1-5.4,2.1-7.8,3.1c0.7,4.6,1.4,8.5,2.1,12.8c10.1-1.7,12.2-7.9,9.3-14
				C760.3,302.7,759.2,301.8,757.5,302.4z"/>
		</g>
		<g>
			<path class="st1" d="M343.6,272c0.1,0.1,0.2,0.1,0.4,0.2c0,0,0,0.1,0.1,0.1c0-0.1,0-0.1,0-0.2C343.9,272,343.7,272,343.6,272z"/>
		</g>
		<g>
			<path class="st1" d="M962.6,685.3c0.2-0.3,0.2-0.7,0.3-1c-1.3-1.5-9.8-6.7-13.8-8.1c-0.5-0.2-1.1,0-1.5,0.5
				c-3,4.5-4.6,7.4-7.8,12.3c-0.4,0.6-0.2,1.4,0.4,1.8c4.3,2.7,8.4,4.9,13,6.7c1.2,0.4,1.7,0.4,2.3-0.5
				C958.8,692.2,959.5,690,962.6,685.3z"/>
		</g>
	</g>
	<g id="XMLID_17_">
		<g id="XMLID_18_">
			<g>
				<path class="st1" d="M600,1156.8c-148.7,0-288.5-57.9-393.7-163.1C101.1,888.5,43.2,748.7,43.2,600s57.9-288.5,163.1-393.7
					S451.3,43.2,600,43.2c148.7,0,288.5,57.9,393.7,163.1c105.2,105.2,163.1,245,163.1,393.7s-57.9,288.5-163.1,393.7
					C888.5,1098.9,748.7,1156.8,600,1156.8z M600,64.4c-143.1,0-277.5,55.7-378.7,156.9C120.1,322.5,64.4,456.9,64.4,600
					s55.7,277.5,156.9,378.7s235.6,156.9,378.7,156.9s277.5-55.7,378.7-156.9s156.9-235.6,156.9-378.7s-55.7-277.5-156.9-378.7
					C877.5,120.1,743.1,64.4,600,64.4z"/>
			</g>
		</g>
	</g>
	<g id="XMLID_15_">
		<g id="XMLID_16_">
			<g>
				<path class="st1" d="M600,1108.1c-135.7,0-263.3-52.8-359.3-148.8c-96-96-148.8-223.6-148.8-359.3s52.8-263.3,148.8-359.3
					c96-96,223.6-148.8,359.3-148.8s263.3,52.8,359.3,148.8c96,96,148.8,223.6,148.8,359.3c0,135.7-52.8,263.3-148.8,359.3
					C863.3,1055.2,735.7,1108.1,600,1108.1z M600,99.1c-133.8,0-259.6,52.1-354.2,146.7C151.2,340.4,99.1,466.2,99.1,600
					s52.1,259.6,146.7,354.2c94.6,94.6,220.4,146.7,354.2,146.7s259.6-52.1,354.2-146.7c94.6-94.6,146.7-220.4,146.7-354.2
					s-52.1-259.6-146.7-354.2C859.6,151.2,733.8,99.1,600,99.1z"/>
			</g>
		</g>
	</g>
	<g id="XMLID_11_">
		<path class="st1" d="M918.5,889c-3.1-3.6-2.5-6.9-0.3-9.8c1.6-2.1,1.7-4.1,1-6.4c3.4-0.4,3.3-0.3,6.9,2c0.6,0.4,1.5,0.3,2.2,0.5
			c2.4,0.6,4.8,1,7,2c2.6,1.2,3.6,3.7,3.2,6.6c-0.4,2.7-2.1,4-4.6,4.4c-0.5,0.1-0.9,0.4-1.3,0.4c-7.4,0-13.3,3.5-19.2,7.5
			c-4.6,3.2-9.7,6.1-16.2,4.5c2.8-3.3,6.8-4,10.2-5.8C910.8,893.1,914.3,891.2,918.5,889z M927,885.3c3.4-0.6,6.6-0.6,9.5-3
			c-3-1.9-5.8-2.7-9-2.4C927.4,881.7,927.2,883.2,927,885.3z M918.6,883.3c0,0.1,0.1,0.3,0.2,0.3c0.5,0.6,1.3,0.8,2,1.1
			c0.5,0.2,1.1,0.5,1.6,0.5c1.3-0.1,2-1.5,2.6-2.4c0.2-0.3,0.4-0.6,0.6-0.9c0.2-0.5,0-0.6-0.3-1c-0.4-0.5-0.8-1-1.2-1.5
			c-0.3-0.4-0.5-0.7-0.8-1.1c-0.4-0.4-0.5-0.4-0.9,0c-0.7,0.8-1.3,1.6-2,2.4c-0.4,0.5-0.7,0.9-1.2,1.4c-0.3,0.3-0.7,0.6-0.8,1
			C918.6,883.2,918.6,883.3,918.6,883.3z"/>
	</g>
	<g>
		<path class="st1" d="M977.9,845.5c-0.6-1.6-1.1-2.5-1.6-2.5c-0.1,0-0.2,0.1-0.4,0.3c-0.9,1.5-1.2,3.4-1.1,5.8
			c0,0.4,0.3,1.1,0.9,1.8c0.6,0.8,0.9,1.4,0.9,1.8c0,0.4-0.5,0.8-1.5,1.2c-1,0.4-1.8,0.6-2.4,0.6c-2.1,0-3.9-1-5.3-3.1
			c0.8-2.7,1.1-4.2,1.1-4.5s-0.1-0.5-0.3-0.6c-0.1,0-0.3,0.1-0.4,0.2c-1.3,1.3-2.3,2.7-2.9,4.3c-1.9,4.1-4.6,6.1-8.1,6.1
			c-2.6,0-4.6-1.4-6-4.1c0.3-1.9,0.4-3.1,0.4-3.6c0-0.5-0.1-0.8-0.3-0.8c-0.3,0-1.7,1-4.4,2.8c-2.7,1.8-5.3,3.3-7.8,4.4
			c-2.5,1.1-5.2,1.4-7.9,1.6c-1.3,0.1-2.7,0.2-4.1-0.2c-0.9-0.2-1.7-0.7-2.5-1.2c-1.5-0.9-2.4-1.7-2.8-2.4c-0.5-0.8-0.8-1.5-0.5-2.5
			c0.1-0.4,0.3-1,0.1-1.5c-0.3-0.4-0.8-0.3-1.1,0c-0.5,0.5-0.8,1.1-1.3,1.7c-1.2,1.5-2,3.5-3.7,4.6c-1.7,1.2-3.8,1.5-5.8,1.5
			c-4.2,0-7.8-1.7-10.6-5c-0.3-0.3-1.4-2.2-3.5-5.7c-1.3-2.2-2.6-3.3-3.8-3.3c-2.4,0-4.8,1.4-7.3,4.1c-2.5,2.7-4.5,5.7-5.8,9.1
			c-1.4,3.4-2.6,6.5-3.7,9.3c-1.2,2.3-2.8,3.5-4.8,3.5c-2.2,0-4-1.9-5.3-5.7c-1.1-3-1.6-6-1.6-9.1c0-0.8,0-1.8,0.1-3
			c0.4-4.4,0.3-6.6-0.3-6.6c-0.4,0-0.8,1.3-1.2,3.8c-0.4,2.5-0.6,4.9-0.6,7c0,5.4,1,9.9,3.1,13.6c2.1,3.7,4.3,5.5,6.7,5.5
			c2.3,0,4.2-1.7,5.6-5c1.3-3.6,2.8-7.1,4.5-10.7c0.8-1.9,2.4-3.8,4.5-5.7c2.2-1.9,3.9-2.9,5.2-2.8c1,0.1,2,1.2,3.2,3.5
			c1.1,2.3,2.2,4,3.2,5.1c3.2,3.6,7.5,5.3,12.7,5.1c2.5,0,4.7-0.9,6.5-2.7c0.9-0.9,2-2.8,3.5-5.8c-0.2,0.4,0,1.4,0.1,1.8
			c0.1,0.6,0.3,1.2,0.6,1.7c0.6,1.2,1.5,2.1,2.6,2.8c2.6,1.8,5.7,2.6,8.8,1.9c3.2-0.7,6.2-1.6,9.2-3.2c2-1,4.8-2.9,8.5-5.7
			c-0.2,2.9,0.5,5,1.9,6.5c1.4,1.5,3.4,2.2,5.9,2.2s4.4-0.9,5.7-2.8c1.3-1.9,2.3-3.4,2.8-4.7c0.8,0.8,1.7,1.7,2.5,2.9
			c1.2,1.3,2.6,1.9,4.1,1.9c4.8,0,7.2-3.6,7.2-10.9C978.8,848.7,978.5,847.2,977.9,845.5z"/>
	</g>
	<g>
		<path class="st1" d="M862.6,836.7c-0.1-0.1-0.3-0.2-0.4-0.2c-0.7,0.4-3.4,3.3-4.2,4.7c-0.1,0.2-0.1,0.4,0.1,0.6
			c1.4,1.6,2.4,2.4,3.9,4.1c0.2,0.2,0.5,0.2,0.7,0c1.4-1.4,2.6-2.9,3.6-4.5c0.2-0.4,0.3-0.6,0-1
			C864.8,838.8,864.1,838.3,862.6,836.7z"/>
	</g>
	<g>
		<path class="st1" d="M862.6,827.9c-0.1-0.1-0.3-0.2-0.4-0.2c-0.7,0.4-3.4,3.3-4.2,4.7c-0.1,0.2-0.1,0.4,0.1,0.6
			c1.4,1.6,2.4,2.4,3.9,4.1c0.2,0.2,0.5,0.2,0.7,0c1.4-1.4,2.6-2.9,3.6-4.5c0.2-0.4,0.3-0.6,0-1C864.8,830,864.1,829.6,862.6,827.9z
			"/>
	</g>
	<g>
		<path class="st1" d="M901.7,829.7c-0.1-0.1-0.3-0.2-0.4-0.2c-0.7,0.4-3.4,3.3-4.2,4.7c-0.1,0.2-0.1,0.4,0.1,0.6
			c1.4,1.6,2.4,2.4,3.9,4.1c0.2,0.2,0.5,0.2,0.7,0c1.4-1.4,2.6-2.9,3.6-4.5c0.2-0.4,0.3-0.6,0-1C904,831.8,903.3,831.3,901.7,829.7z
			"/>
	</g>
	<g>
		<g>
			<path class="st1" d="M920.4,839.5c-0.1,0-0.2-0.5-0.3-1.5c-0.1-1-0.2-2.3-0.3-3.8c-0.4-2.4-2.3-6.1-5.7-11.1
				c-0.9-1.3-1.5-2.6-1.8-3.8c0-0.2,0.2-1.4,0.6-3.7c0.1-0.3,0.2-0.4,0.3-0.4c0.3,0,0.6,0.4,1,1.3c2.6,4.1,4.2,6.5,4.6,7.3
				c1.7,3.3,2.7,6.8,2.9,10.5c0,0.8-0.1,1.9-0.4,3.2C920.9,838.8,920.7,839.5,920.4,839.5z"/>
		</g>
		<g>
			<path class="st1" d="M943.2,816.3c0,1.6-0.4,3.2-1.1,4.7c-0.7,1.6-1.5,2.4-2.3,2.4s-1.5-0.1-1.9-0.4c-0.4-0.3-0.8-0.6-1.2-0.9
				c-0.3,0.7-0.9,1.3-1.7,1.8c-0.8,0.6-1.5,0.8-2,0.7c0.3,1.1,0.7,2.1,1,3.2c0.5,2.1,0.7,4.4,0.7,7.1c0,2.7-0.2,4-0.5,4
				c-0.2,0-0.3-0.3-0.5-1c-0.1-0.8-0.3-2.2-0.5-4.2c-0.4-2.9-1.9-6.8-4.6-11.8c-0.6-1.1-0.9-1.8-0.9-2.1c0-0.3,0.1-1,0.3-2.1
				c0.2-1.1,0.4-1.6,0.7-1.6c0.1,0,0.2,0.1,0.3,0.2c0.9,1.7,1.5,2.7,1.7,2.9c0.4,0.5,1.3,0.8,2.4,0.8s2.1-0.5,2.7-1.4
				c0.5-1.1,1-2.1,1.5-3.2c0.1-0.2,0.2-0.3,0.4-0.3c0.5,0,0.7,0.3,0.6,1c0,0.2,0,0.5,0,0.7c0,1.3,0.5,1.9,1.6,1.9
				c0.8,0,1.3-0.2,1.6-0.5c0.3-0.3,0.6-1.2,1-2.7c0.1-0.2,0.2-0.3,0.3-0.3C943,815.2,943.2,815.6,943.2,816.3z"/>
		</g>
		<g>
			<path class="st1" d="M961,816.3c0,1.6-0.4,3.2-1.1,4.7c-0.7,1.6-1.5,2.4-2.3,2.4c-0.9,0-1.5-0.1-1.9-0.4
				c-0.4-0.3-0.8-0.6-1.2-0.9c-0.3,0.7-0.9,1.3-1.7,1.8c-0.8,0.6-1.5,0.8-2,0.7c0.3,1.1,0.7,2.1,1,3.2c0.5,2.1,0.7,4.4,0.7,7.1
				c0,2.7-0.2,4-0.5,4c-0.2,0-0.3-0.3-0.5-1c-0.1-0.8-0.3-2.2-0.5-4.2c-0.4-2.9-1.9-6.8-4.6-11.8c-0.6-1.1-0.9-1.8-0.9-2.1
				c0-0.3,0.1-1,0.3-2.1c0.2-1.1,0.4-1.6,0.7-1.6c0.1,0,0.2,0.1,0.3,0.2c0.9,1.7,1.5,2.7,1.7,2.9c0.4,0.5,1.3,0.8,2.4,0.8
				c1.2,0,2.1-0.5,2.7-1.4c0.5-1.1,1-2.1,1.5-3.2c0.1-0.2,0.2-0.3,0.4-0.3c0.5,0,0.7,0.3,0.6,1c0,0.2,0,0.5,0,0.7
				c0,1.3,0.5,1.9,1.6,1.9c0.8,0,1.3-0.2,1.6-0.5c0.3-0.3,0.6-1.2,1-2.7c0.1-0.2,0.2-0.3,0.3-0.3C960.9,815.2,961,815.6,961,816.3z"
				/>
		</g>
		<g>
			<path class="st1" d="M971.5,838.3c-0.2,0-0.3-0.3-0.4-1c-0.4-2.3-0.7-3.9-1.1-4.9c-1-2.5-2.1-4.7-3.3-6.4c-0.8-1-1.4-2-2.1-2.9
				c-0.6-0.9-1-1.8-1-2.7l0.3-2.7c0.1-0.5,0.2-0.7,0.5-0.7c0.8,0,2.2,1.9,4.2,5.7c2,3.8,3.3,6.8,3.7,8.9c2.9-10.8,4.9-16.2,5.9-16.2
				c0.3,0,0.5,0.6,0.5,1.7c0,1.1,0,2-0.2,2.6c-0.2,0.7-0.6,1.6-1.2,3c-0.6,1.3-1.3,3.4-2.3,6.1C973.4,835.2,972.2,838.3,971.5,838.3
				z"/>
		</g>
	</g>
	<g>
		<g>
			<path class="st1" d="M920.4,839.5c-0.1,0-0.2-0.5-0.3-1.5c-0.1-1-0.2-2.3-0.3-3.8c-0.4-2.4-2.3-6.1-5.7-11.1
				c-0.9-1.3-1.5-2.6-1.8-3.8c0-0.2,0.2-1.4,0.6-3.7c0.1-0.3,0.2-0.4,0.3-0.4c0.3,0,0.6,0.4,1,1.3c2.6,4.1,4.2,6.5,4.6,7.3
				c1.7,3.3,2.7,6.8,2.9,10.5c0,0.8-0.1,1.9-0.4,3.2C920.9,838.8,920.7,839.5,920.4,839.5z"/>
		</g>
		<g>
			<path class="st1" d="M943.2,816.3c0,1.6-0.4,3.2-1.1,4.7c-0.7,1.6-1.5,2.4-2.3,2.4s-1.5-0.1-1.9-0.4c-0.4-0.3-0.8-0.6-1.2-0.9
				c-0.3,0.7-0.9,1.3-1.7,1.8c-0.8,0.6-1.5,0.8-2,0.7c0.3,1.1,0.7,2.1,1,3.2c0.5,2.1,0.7,4.4,0.7,7.1c0,2.7-0.2,4-0.5,4
				c-0.2,0-0.3-0.3-0.5-1c-0.1-0.8-0.3-2.2-0.5-4.2c-0.4-2.9-1.9-6.8-4.6-11.8c-0.6-1.1-0.9-1.8-0.9-2.1c0-0.3,0.1-1,0.3-2.1
				c0.2-1.1,0.4-1.6,0.7-1.6c0.1,0,0.2,0.1,0.3,0.2c0.9,1.7,1.5,2.7,1.7,2.9c0.4,0.5,1.3,0.8,2.4,0.8s2.1-0.5,2.7-1.4
				c0.5-1.1,1-2.1,1.5-3.2c0.1-0.2,0.2-0.3,0.4-0.3c0.5,0,0.7,0.3,0.6,1c0,0.2,0,0.5,0,0.7c0,1.3,0.5,1.9,1.6,1.9
				c0.8,0,1.3-0.2,1.6-0.5c0.3-0.3,0.6-1.2,1-2.7c0.1-0.2,0.2-0.3,0.3-0.3C943,815.2,943.2,815.6,943.2,816.3z"/>
		</g>
		<g>
			<path class="st1" d="M961,816.3c0,1.6-0.4,3.2-1.1,4.7c-0.7,1.6-1.5,2.4-2.3,2.4c-0.9,0-1.5-0.1-1.9-0.4
				c-0.4-0.3-0.8-0.6-1.2-0.9c-0.3,0.7-0.9,1.3-1.7,1.8c-0.8,0.6-1.5,0.8-2,0.7c0.3,1.1,0.7,2.1,1,3.2c0.5,2.1,0.7,4.4,0.7,7.1
				c0,2.7-0.2,4-0.5,4c-0.2,0-0.3-0.3-0.5-1c-0.1-0.8-0.3-2.2-0.5-4.2c-0.4-2.9-1.9-6.8-4.6-11.8c-0.6-1.1-0.9-1.8-0.9-2.1
				c0-0.3,0.1-1,0.3-2.1c0.2-1.1,0.4-1.6,0.7-1.6c0.1,0,0.2,0.1,0.3,0.2c0.9,1.7,1.5,2.7,1.7,2.9c0.4,0.5,1.3,0.8,2.4,0.8
				c1.2,0,2.1-0.5,2.7-1.4c0.5-1.1,1-2.1,1.5-3.2c0.1-0.2,0.2-0.3,0.4-0.3c0.5,0,0.7,0.3,0.6,1c0,0.2,0,0.5,0,0.7
				c0,1.3,0.5,1.9,1.6,1.9c0.8,0,1.3-0.2,1.6-0.5c0.3-0.3,0.6-1.2,1-2.7c0.1-0.2,0.2-0.3,0.3-0.3C960.9,815.2,961,815.6,961,816.3z"
				/>
		</g>
		<g>
			<path class="st1" d="M971.5,838.3c-0.2,0-0.3-0.3-0.4-1c-0.4-2.3-0.7-3.9-1.1-4.9c-1-2.5-2.1-4.7-3.3-6.4c-0.8-1-1.4-2-2.1-2.9
				c-0.6-0.9-1-1.8-1-2.7l0.3-2.7c0.1-0.5,0.2-0.7,0.5-0.7c0.8,0,2.2,1.9,4.2,5.7c2,3.8,3.3,6.8,3.7,8.9c2.9-10.8,4.9-16.2,5.9-16.2
				c0.3,0,0.5,0.6,0.5,1.7c0,1.1,0,2-0.2,2.6c-0.2,0.7-0.6,1.6-1.2,3c-0.6,1.3-1.3,3.4-2.3,6.1C973.4,835.2,972.2,838.3,971.5,838.3
				z"/>
		</g>
	</g>
	<g>
		<rect x="678.6" y="771" class="st1" width="394.9" height="7.2"/>
	</g>
	<g>
		<rect x="429.6" y="771" class="st1" width="249.1" height="7.2"/>
	</g>
	<g>
		<polygon class="st1" points="429.6,778.2 130.5,778.2 128.3,771 429.6,771 		"/>
	</g>
	<g>
		<path class="st1" d="M598.8,1009.2l0.5-0.1c1,0,1.4,0,1.6,0c0,0,0,0,0,0c5.4,0,10.1-3.1,12.1-8l0.5-1.1H818v-16.1l-48-120.3h-18.6
			l-7-17.9h-17.5l-9.4-23.5l-2.3,0.3c-0.5,0.1-56.3,6.7-68.9,6.7c-10.9,0-35.8,10.2-44.8,22.4l-1.5,2l-1.5-2
			c-9-12.1-33.9-22.4-44.8-22.4c-12.7,0-68.4-6.7-68.9-6.7l-2.3-0.3l-9.4,23.5h-17.5l-7,17.9H430l-48,120.3v16.1h204.4l0.5,1.1
			c1.9,4.4,5.9,7.4,10.6,7.9C598.2,1009.1,598.5,1009.2,598.8,1009.2z M766,869.7l46.1,115.6H610.7l13.3-3.7
			c17.5-4.9,43-10.7,64.3-10.7c37.8,0,89.2,2.2,101.8,4.4l5.2,0.9l-41.6-106.4L766,869.7L766,869.7z M740.3,851.8l45.6,116.7l-3-0.3
			c-20.7-1.9-63.1-3.5-94.7-3.5c-13.5,0-29.8,2.2-48.5,6.5l-17.6,4l16.4-7.6c46.4-21.5,89.3-16.5,128.8-7.9l5.5,1.2l-43.6-109.1
			H740.3z M604.3,859.8c0-9.1,28.6-24.5,42-24.5c11.2,0,53.3-4.9,66-6.3l1.4-0.2l49.5,123.8l-3.3-0.7c-19.5-3.9-35.8-5.7-51.2-5.7
			c-27.9,0-53.3,6-77.9,18.4c-0.9,0.5-2.9,1.3-5.2,2.3c-8.6,3.6-14.3,6.2-18.3,8.5l-2.8,1.6L604.3,859.8L604.3,859.8z M459.7,851.8
			h11l-43.6,109.1l5.5-1.2c39.5-8.6,82.3-13.6,128.8,7.9l16.4,7.6l-17.6-4c-18.7-4.3-35-6.5-48.5-6.5c-31.5,0-74,1.6-94.7,3.5
			l-3,0.3L459.7,851.8z M387.9,985.3L434,869.7h12.2l-41.6,106.4l5.2-0.9c12.7-2.2,64.1-4.4,101.8-4.4c21.3,0,46.8,5.8,64.3,10.7
			l13.3,3.7L387.9,985.3L387.9,985.3z M595.7,977.1l-2.8-1.6c-4-2.4-9.7-5-18.3-8.5c-2.3-1-4.3-1.8-5.2-2.2
			c-24.6-12.4-50.1-18.4-77.9-18.4c-15.5,0-31.7,1.8-51.2,5.7l-3.3,0.7l49.5-123.8l1.4,0.2c12.6,1.5,54.8,6.3,66,6.3
			c13.4,0,42,15.4,42,24.5L595.7,977.1L595.7,977.1z"/>
	</g>
	<g>
		<g>
			<path class="st1" d="M637.6,884.3c10.9-5.3,23.1-7.2,35.1-8.5c12.1-0.2,24.5,0.8,35.7,5.6c-11.9-2.1-23.6-3.7-35.5-2.4
				C660.9,879.1,649.3,881.6,637.6,884.3z"/>
		</g>
		<g>
			<path class="st1" d="M638.9,904.2c10.9-5.3,23.1-7.2,35.1-8.5c12.1-0.2,24.5,0.8,35.7,5.6c-11.9-2.1-23.6-3.7-35.5-2.4
				C662.3,899,650.6,901.5,638.9,904.2z"/>
		</g>
		<g>
			<path class="st1" d="M640.2,924.1c10.9-5.3,23.1-7.2,35.1-8.5c12.1-0.2,24.5,0.8,35.7,5.6c-11.9-2.1-23.6-3.7-35.5-2.4
				C663.6,918.9,651.9,921.5,640.2,924.1z"/>
		</g>
	</g>
	<g>
		<g>
			<path class="st1" d="M563,884.3c-11.7-2.7-23.4-5.2-35.3-5.3c-11.9-1.3-23.7,0.3-35.5,2.4c11.2-4.7,23.6-5.7,35.7-5.6
				C539.9,877.1,552,879,563,884.3z"/>
		</g>
		<g>
			<path class="st1" d="M561.7,904.2c-11.7-2.7-23.4-5.2-35.3-5.3c-11.9-1.3-23.7,0.3-35.5,2.4c11.2-4.7,23.6-5.7,35.7-5.6
				C538.6,897,550.7,898.9,561.7,904.2z"/>
		</g>
		<g>
			<path class="st1" d="M560.4,924.1c-11.7-2.7-23.4-5.2-35.3-5.3c-11.9-1.3-23.7,0.3-35.5,2.4c11.2-4.7,23.6-5.7,35.7-5.6
				C537.3,916.9,549.4,918.8,560.4,924.1z"/>
		</g>
	</g>
	<path class="st1" d="M738.2,530.4c-32.8-1.7-42.2,30.5-67,44c-24.8,13.5-81.2,48.7-81.2,48.7S449.8,376,445.4,330.6
		c0,0-20.1,13.7-14.1,47.3c0,0-13.3-3.2-7.4,13.9c0,0-12.8-1.9-6.3,18.6c0,0-5.1,0.7-3.4,8.4c1.7,7.7,3.7,14.1,3.7,14.1
		s-5.9,1.6-2.7,9.3c3.2,7.6,5.5,12.7,5.5,12.7s-6.2,3.8-2.8,11.5c3.4,7.6,6.7,14.9,6.7,14.9s-5.9,1.6-2.4,10.6
		c3.4,8.9,7.6,16.1,7.6,16.1s-2.4,2.7,1,12.1c3.5,9.4,8.3,20.4,8.3,20.4s-3.9,7.6,0.9,17.8c4.8,10.2,16.7,26.9,16.7,26.9
		s-6.4,8.6,0,24.3c6.3,15.7,6.6,13.6,6.6,13.6s-5.9,26.4,10,45.5c15.9,19.1,24.8,20.4,24.8,20.4s-4.2,2-1.3,7.5c0,0-8.6-2.6-6.1,6
		c0,0-34.4-7.7-58.1-6c-23.7,1.7-60.9-11.1-60.9-11.1l30.5,23.1c0,0-7,4.3-1.2,9.6c5.8,5.3,22.3,11.8,22.3,11.8s-5,2.4-2.7,5.4
		c2.3,2.9,12.2,6.7,12.2,6.7s-1.5,12.7,8.4,15.2s12.3,8,17.1,9.9c4.8,1.9,10.8,4.2,14.9,9.6c4.1,5.4,19.5,6.8,23.2,5.7
		c0,0,15.1,4.4,22.5-1.2c0,0,11.4,3.7,23.2-0.8c-1.1,5.8-1.4,12.8-2.6,19.8c0,0.1,4.7-1.2,5.2-1.5c0.8-0.4,1.5-1,2-1.7
		c0.5-0.7,1-2.4,2.1-1.8c0.6,0.3,0.6,1,0.8,1.6c0.3,0.7,0.8,1.3,1.5,1.7c-0.2,5.5-0.4,11.2,0.4,13.9c0.2,0.5-2.2,2.8-2.6,3.2
		c-0.8,0.8-1.6,1.6-2.6,2.2c-1.5,1-3.1,1.6-4.9,1.7c-3.6,0.2-7.2-1.2-10.8-1.8c-1.7-0.3-3.8-0.9-5.5-0.1c-1.3,0.6-2.6,1.6-3.9,2.3
		c-1.6,0.9-3.2,1.7-4.8,2.6c-0.7,0.4-1.4,0.8-2,1.2c-1.1,0.6-1.9,2.1-1.9,3.5c8.4,0.5,16.8,2.6,24.6,3.9c-0.4,2.3-0.4,2.3-0.7,4.6
		c0,0,0.7,7.9,5.2,10.2c-0.8-0.4,2.5-5.6,2.8-6c1.4-1.9,2.9-3.7,4.5-5.4c1.1-1.2,2.6-2.7,4.2-3c7-1.2,9.6-3.1,16.3-2
		c3.7,0.6,6.3,4.2,8.9,6.6c2.6,2.5,5.2,9.2,9.4,7.8c-0.7,0.2-1.5-2.2-1.5-2.6c-0.2-1.2,0.1-2.4,0.2-3.5c0.3-1.8,0.9-5.9,0.4-7.7
		c-0.3-0.9-0.7-1.6-1.4-2.3c-1.9-1.8-5-2.5-7.2-3c-3.6-0.8-7.5-1.4-10.3-4.2c-1.5-1.5-2.6-3.4-3.3-5.4c-1.4-4.1-1.3-8.5-0.8-12.8
		c1.7,0.3,3.7,0.3,5.5,0.2c1.6-0.1,3.2,0.1,4.3-1.2c4.8-5.9,2.2-11.5,7.8-9.6c5.6,1.9,13.9,5.8,17-0.9c1.6-3.5,5.9,0.9,7.3,2.3
		c1,1,2.2,2.3,2.8,3.6c1.1,2.4,0,5.3,1.1,7.7c1.1,2.3,2.9,0.6,4.6-0.6c5.8-4.3,8.9-11,8.9-17.7c1.6,2.8,3.2,5.7,5,8.8
		c0.3-1.7,0.5-3.3,0.8-4.8c1.6,1.3,3.4,2.6,5.3,3.7c1.7,3.5,3.4,7,5,10.5l4.9-0.1c0.6,2.1,1.2,4.1,1.8,5.7c0.3,0.8-1.8,4.1-2.2,4.8
		c-0.9,1.8-2.1,3.5-3.4,5c-1.7,1.8-3.9,2.9-5.6,4.6c-1.7,1.7-2.4,4.1-2.8,6.3c-0.3,1.6-1.5,4.9-1.2,6.8c1.4-0.4,11.7-10,14.4-10.5
		c5-0.9,9.9-1.6,15-0.8c2.4,0.4,4.8,1,7.2,1.6c1.9,0.5,4,0.7,5.8,1.6c2.5,1.2,2.1,3.8,3.9,5.5c1,1,2.3,1.6,3.4,2.5
		c0.6,0.5,1.1-2.7,1.1-3c0.3-2.1-0.6-3-2-4.4c-1.1-1.1-1.8-2.6-2.8-3.8c-1.6-1.7-4.5-4.1-6.9-4.3c8.2,0.7,15-0.5,19.6,3.3
		c4.8,2.1,0.9,7.1,5.7,9.2c1.5,1.8,2.1-3.5,2.4-6.8c0.1-1.7-1.4-3.5-1.2-5.2c0.2-2.5-3.6-5.6-5.2-6.9c-3.1-2.7-5.8-2.3-9.8-2.3
		c-4.4,0-8.8,0.1-13.2-0.4c-2-0.2-11.7-1.3-12.3-3.8c-0.4-1.7-1-3.4-1.7-5.1l3.2-0.1c0.1-0.9-0.5-1.8-0.8-2.6
		c-0.9-2.1-1.9-4.1-2.6-6.2c-0.4-1.4-0.8-2.9-1.2-4.4c1.2-1.9,2.3-3.9,3.1-6.2c1.6,1.4,3.1,2.7,4.3,3.3c-0.1-0.7-0.1-1.2-0.3-1.6
		c-0.7-2-1.6-4.3-2.6-6.7c2-10.6-0.4-24.2-10.1-38.5l-8.4-12.6c0,0,23.6,2.6,38.2-12s34.7-3.6,36.6,8.9c0,0,16.8-12.6-1.8-35.1
		c-12.5-15.1-27.7-20.4-36.3-22.3c-4.2-0.5-6.9-1-6.9-1s2.7,0.1,6.9,1c11.2,1.4,32.9,3.2,39.7-3.5c0,0,15.1,4.4,27-11.9
		c0,0,9.2-2.2,11.8-9.8c0,0,10.5-2.3,15.2-11.2c0,0,11.6-5,14.7-11.7c0,0,9.9-5.3,12.1-12.4c0,0,16-11.3,17.6-20.9
		c0,0,14.1-7.7,13.9-18.1c0,0,16.2-7.8,16.8-20c0,0,17.4-17.9,21.1-35.9c0,0,25.4-34.8,29.4-55.9C895.1,456.4,771,532.1,738.2,530.4
		z"/>
	<path id="XMLID_10_" class="st2" d="M661,553.1L790.8,415L656.1,549.4c-1.1-0.8-2.3-1.7-3.5-2.5l59.1-79.6l-61.7,77.9
		c-1.6-1-3.1-2-4.7-2.9l74.6-119.8l-78.5,117.6c-1.6-0.9-3.2-1.7-4.8-2.5l46.5-86.5l-49.3,85.2c-1.6-0.7-3.2-1.5-4.9-2.2l87.5-173.3
		l-93.3,171.1c-1.7-0.6-3.4-1.1-5.1-1.7l37.2-93.5l-40.2,92.6c-0.6-0.2-1.2-0.4-1.8-0.5L655,392.9L609,527.8c-2-0.5-4-0.9-5.9-1.3
		l24.6-97.8L599.9,526c-0.6-0.1-1.3-0.2-1.9-0.3l7.4-195.9L591.9,525c-2.7-0.3-5.4-0.4-8.1-0.5L582.3,422l-1.7,102.4
		c-0.6,0-1.1,0-1.7,0l-13.5-142.6l9.1,142.7c-2,0.1-4,0.3-6,0.4l-14.5-99.3l11.4,99.6c-0.7,0.1-1.5,0.2-2.2,0.3l-58.2-184.6
		l52.2,185.6c-1.7,0.3-3.3,0.6-4.9,1l43.8,77l72.5-45C666,557.3,663.5,555.2,661,553.1z"/>
	<g>
		<g>
			<path class="st1" d="M279.8,859.2c-0.6,0.2-1,0.3-1.1,0.5c-2.7,4-6.3,5.9-11.1,5.4c-5.5-0.6-10-2.9-12.9-7.7
				c-0.8-1.3-1.4-2.7-2.2-4c-1.6-2.5-2.8-2.8-5.4-1.2c-3.5,2.2-6.1,5.2-7.7,9.1c-1.2,3.1-2.4,6.3-3.8,9.3c-3,6.4-8.3,6.9-12.2,1
				c-1.6-2.4-2.8-5.4-3.5-8.3c-1.3-5.9-1.2-11.8,1.7-17.5c0,1.5,0.2,3.1,0,4.6c-0.6,5.1,0,10.1,2,14.8c0.9,2.2,2.1,4.3,4.9,4.5
				c3.1,0.1,4.4-2,5.5-4.4c1.2-2.8,2.2-5.6,3.5-8.4c2.1-4.7,4.9-8.9,9.1-11.8c3.7-2.6,5.8-2.2,8.5,1.5c1.1,1.5,1.9,3.2,3,4.7
				c3.6,5.3,9.7,7.8,15.9,6c1.6-0.5,3.1-1.9,4.3-3.1c1.2-1.3,2-2.9,3-4.3c1.6,2.3,2.6,4.5,4.2,6.1c2,2,4.9,1.8,7.6,1.7
				c4.8-0.3,9.2-1.9,13.2-4.4c2.3-1.5,4.7-3,7.3-4.6c0.3,1.1,0.6,1.6,0.5,2c-0.6,3.2,0.8,5.2,3.6,6.4c3,1.3,5.6,0.2,7.8-2
				c1-1,1.8-2.4,2.6-3.7c1-1.5,2-2.9,3.6-5.3c0.7,3.4-1.6,6.4,2,7.8c2.4,1,4.5,0.9,6.7-0.8c-1.6-3.1-2.8-6.2-0.1-9.3
				c3.6,4.5,3.9,11.4,0.7,15.3c-2.3,2.8-6.5,3.4-9.5,1.1c-0.9-0.7-1.5-1.8-2.4-3c-3.1,3.4-5.1,7.4-10.1,7.3
				c-5.1-0.2-7.2-3.5-8.2-8.2c-1.7,1.2-3,2.2-4.5,3c-2.9,1.6-5.9,3.3-8.9,4.5C290.2,866.2,284.2,865.4,279.8,859.2z"/>
			<path class="st1" d="M292.5,828.6c-5.5,1.2-7.2,0-6.9-4.8c0.2-2.4,0.9-5,1.9-7.2c1.2-2.6,3.5-2.6,5.1-0.3c1,1.5,1.7,3.3,1.9,5.1
				c0.7,5.4,1.6,10.6,4.4,15.3c1.2,2,1.1,4.2-0.7,6.7C294.2,839.2,294.1,833.8,292.5,828.6z M289.3,823.4c0.5-0.6,0.8-1,1.1-1.3
				c-0.4-0.3-0.8-0.8-1.3-1c-0.2-0.1-1,0.7-0.9,0.8C288.4,822.4,288.8,822.8,289.3,823.4z"/>
			<path class="st1" d="M331.2,815.2c0.8,2.4,1.2,3.6,1.7,4.8c1.7,4,3.1,8.2,5.4,11.8c2.1,3.2,1.9,6.1,0.8,10.2
				c-4.2-4.6-5.3-9.9-7.9-15.2c-1.8,5.3-3.4,10.1-5,14.8c-0.4-0.1-0.8-0.2-1.3-0.2c0-1.6-0.3-3.2,0.1-4.7
				C326.8,829.9,328.9,823.1,331.2,815.2z"/>
			<path class="st1" d="M226.5,840.3c-2.1,1.6-3.7,2.9-5.8,4.4c-1.5-2.7-2.7-4.9-4-7.3c1.5-1.4,2.7-2.5,4-3.8
				c-1.5-2.1-3-4.2-4.7-6.7c1.5-1.7,2.9-3.3,4.2-4.9c6.1,5.4,6.3,6.4,2.9,12.1C224.2,835.9,225.2,837.8,226.5,840.3z"/>
			<path class="st1" d="M268,815.7c7,7.4,10.4,19.4,7.9,28.1c-0.4-0.4-0.9-0.8-0.9-1.1c0.1-6.7-3-12.2-6.1-17.8
				C266.5,820.6,266.5,820.3,268,815.7z"/>
			<path class="st1" d="M315,843.6c-0.2-7.5-3.9-13.6-7.2-19.7c-1.4-2.6-1.5-5.3-0.5-8.2C314.2,822.3,318,835.5,315,843.6z"/>
			<path class="st1" d="M260,839c-2.7-1.6-5.1-3-7.6-4.5c0.8-2.4,1.5-4.4,2.2-6.6c1.5,0.7,2.6,1.2,3.6,1.7
				C263.4,832.3,263.6,833,260,839z"/>
		</g>
		<g>
			<path class="st3" d="M290.1,880.1c0,0.9-0.4,2-1.1,3.3c-0.8,1.5-1.5,2.3-2.3,2.3c-1.7,0.1-3.6-0.4-5.9-1.7
				c-0.6,2.7-2.2,5.1-4.6,7.1c-0.9,0.7-3.3,1.8-7.3,3.3c-4,1.4-6.5,2.1-7.6,2.1c-0.2,0-0.3,0-0.3-0.1c0-0.3,0.5-0.7,1.6-1.3
				l10.5-6.3c3.5-2.1,5.5-4,6.1-5.6c-0.6-0.4-0.9-1.1-0.9-2.1c0.1-1.3,0.6-2.8,1.8-4.7c2-3.4,3.9-5,5.9-4.9c1.6,0.1,2.8,1.2,3.5,3.4
				C290,876.4,290.2,878.2,290.1,880.1z M286.8,880c1.2,0.1,0.5-1.4-2.2-4.2c-0.6,0-1.2,0.3-2,0.8c-0.8,0.6-1.1,1-0.9,1.2
				C283.2,879.2,284.9,879.9,286.8,880z"/>
		</g>
	</g>
</g>
</svg>
